C:\GBW_MyPrograms\KinderuniversiteitApp\Resultaten\Ellis_v10102025\Volwassenen\Volwassenen_v4.mot
version=1
nRows=19
nColumns=29
inDegrees=yes
endheader
                time	         pelvis_tilt	           pelvis_tx	           pelvis_ty	       hip_flexion_l	       hip_flexion_r	        knee_angle_l	        knee_angle_r	       ankle_angle_l	       ankle_angle_r	    lumbar_extension	hamstrings_r/activation	bifemsh_r/activation	glut_max_r/activation	iliopsoas_r/activation	rect_fem_r/activation	  vasti_r/activation	gastroc_r/activation	 soleus_r/activation	tib_ant_r/activation	hamstrings_l/activation	bifemsh_l/activation	glut_max_l/activation	iliopsoas_l/activation	rect_fem_l/activation	  vasti_l/activation	gastroc_l/activation	 soleus_l/activation	tib_ant_l/activation	
          2.00000000	         -7.89926380	          2.37162911	          1.01899713	         -2.66580529	         27.47389263	        -20.26449530	        -10.81445120	          3.02298823	          7.09369906	          1.15359532	          0.31961497	          0.05000010	          0.10912263	          0.05000005	          0.07976437	          0.05000012	          0.05000002	          0.05000006	          0.23652932	          0.05000005	          0.05000033	          0.05000086	          0.56509812	          0.31479981	          0.08888988	          0.23225217	          0.19365573	          0.05000001	
          2.02000000	         -8.17620572	          2.40027626	          1.01754679	         -2.47469829	         25.99855701	        -22.76556843	         -9.80033029	          1.04993794	          6.83350311	          2.01740900	          0.28887417	          0.05000042	          0.12293963	          0.05000003	          0.05982330	          0.13860247	          0.05041641	          0.06504739	          0.24160515	          0.07313393	          0.05000443	          0.05000026	          0.50506771	          0.23609987	          0.06666742	          0.17418913	          0.14524181	          0.05000000	
          2.04000000	         -8.43270276	          2.42830699	          1.01607387	         -1.17113854	         24.46184531	        -27.11642390	         -9.49246732	         -1.30258609	          6.53131336	          2.79186013	          0.21665566	          0.05000022	          0.19961872	          0.05000001	          0.05000005	          0.19320226	          0.05000003	          0.05000004	          0.29722044	          0.05485055	          0.05000057	          0.05371080	          0.43905564	          0.17707494	          0.05000057	          0.13064186	          0.10893136	          0.24582809	
          2.06000000	         -8.66709842	          2.45439687	          1.01558016	          0.84445673	         23.19340209	        -31.99950271	         -9.51341222	         -1.57040178	          6.48669574	          3.32232194	          0.17097162	          0.05000019	          0.20269317	          0.05000002	          0.05000018	          0.24319646	          0.05000003	          0.05000003	          0.31296639	          0.05418487	          0.14365191	          0.05000002	          0.34036526	          0.29004224	          0.05000000	          0.09798142	          0.08169852	          0.27221244	
          2.08000000	         -8.87563736	          2.47872087	          1.01676541	          3.13681259	         22.05288957	        -36.10751252	         -9.64184532	         -0.77749403	          6.62770033	          3.62611333	          0.14322341	          0.05000031	          0.17343117	          0.05000004	          0.05000021	          0.24873158	          0.05000006	          0.05000009	          0.29843676	          0.06948279	          0.23776996	          0.05000001	          0.25666256	          0.36578539	          0.05000000	          0.09547784	          0.06127390	          0.24539283	
          2.10000000	         -9.04819940	          2.50197443	          1.01924815	          5.49520894	         20.73650518	        -39.14272590	         -9.42817887	          0.22298631	          6.98367218	          3.77166616	          0.12503291	          0.05000032	          0.15196292	          0.05000003	          0.05000014	          0.21587897	          0.05000006	          0.05000007	          0.27650664	          0.06990573	          0.32591820	          0.05000001	          0.19835452	          0.39205296	          0.05000000	          0.08461234	          0.05000002	          0.22265005	
          2.12000000	         -9.17477168	          2.52453317	          1.02229253	          7.88305327	         19.19163755	        -41.29317391	         -8.81603090	          1.25603875	          7.35572368	          3.78879141	          0.11262288	          0.05000024	          0.13988605	          0.05000002	          0.05000013	          0.17954324	          0.05000004	          0.05000007	          0.25845527	          0.05242966	          0.41891201	          0.05000001	          0.15997699	          0.37946662	          0.05000000	          0.06345938	          0.05000002	          0.20753595	
          2.14000000	         -9.24685511	          2.54655875	          1.02527058	         10.32903602	         17.48061932	        -42.85340310	         -7.94546119	          2.27216697	          7.68074677	          3.68398798	          0.09901221	          0.05000020	          0.12319722	          0.05000002	          0.05000018	          0.15575406	          0.05000004	          0.05000007	          0.24568664	          0.05000010	          0.50300323	          0.05000001	          0.14169857	          0.34892553	          0.05000001	          0.05000038	          0.05000002	          0.19710668	
          2.16000000	         -9.25901729	          2.56812336	          1.02775320	         12.89590938	         15.66327200	        -44.18534791	         -6.94204441	          3.21156508	          7.95713234	          3.45734520	          0.08468601	          0.05000018	          0.10708528	          0.05000002	          0.05000030	          0.14190226	          0.05000003	          0.05000007	          0.23584160	          0.05000005	          0.54493734	          0.05000001	          0.13244877	          0.31428655	          0.05000001	          0.05000015	          0.05000002	          0.19768615	
          2.18000000	         -9.21069981	          2.58931637	          1.02951787	         15.61236315	         13.76881325	        -45.53801480	         -5.87349504	          4.06686371	          8.22087883	          3.11698752	          0.07107976	          0.05000019	          0.09140636	          0.05000003	          0.05000048	          0.13062327	          0.05000004	          0.05000007	          0.22443425	          0.05000003	          0.53506110	          0.05000001	          0.12777851	          0.28371329	          0.05000001	          0.05000018	          0.05000002	          0.19970763	
          2.20000000	         -9.10558057	          2.61028761	          1.03052780	         18.43169451	         11.80676548	        -46.92955971	         -4.77224504	          4.87565791	          8.51578451	          2.68295722	          0.05921616	          0.05000022	          0.07724540	          0.05000003	          0.05000060	          0.11782504	          0.05000003	          0.05000006	          0.20790673	          0.05000002	          0.49037014	          0.05000001	          0.12739736	          0.25922623	          0.05000001	          0.05000017	          0.05000002	          0.20158317	
          2.22000000	         -8.95027736	          2.63123458	          1.03087259	         21.25441959	          9.76878417	        -48.20958699	         -3.63377977	          5.62950892	          8.85163538	          2.18400909	          0.05010031	          0.05000025	          0.06280393	          0.05000004	          0.05000094	          0.10392601	          0.05000021	          0.05000035	          0.18449615	          0.05000001	          0.40554762	          0.05000001	          0.13201874	          0.23957524	          0.05000002	          0.05000014	          0.05000002	          0.20294360	
          2.24000000	         -8.75324275	          2.65237734	          1.03069306	         23.95109383	          7.63188825	        -49.12907644	         -2.41067984	          6.31564612	          9.10030831	          1.65336915	          0.05000015	          0.05000028	          0.05241569	          0.05000004	          0.05000208	          0.08989360	          0.10295154	          0.05000014	          0.18164612	          0.05000001	          0.30416089	          0.05000001	          0.14664957	          0.22490682	          0.05000003	          0.05000010	          0.05000003	          0.20434159	
          2.26000000	         -8.52424641	          2.67386304	          1.03010560	         26.41027097	          5.43036851	        -49.45611921	         -1.16321523	          6.92379414	          9.24663320	          1.11751792	          0.05000013	          0.05000034	          0.05000030	          0.05000005	          0.05546880	          0.08014508	          0.15862841	          0.05000018	          0.18439610	          0.05000001	          0.22812072	          0.05000001	          0.16593388	          0.20793648	          0.05000009	          0.05000008	          0.05000003	          0.20505887	
          2.28000000	         -8.27417170	          2.69578680	          1.02913688	         28.56934055	          3.19850155	        -49.07734871	          0.04513164	          7.43700463	          9.36889249	          0.59856994	          0.05000011	          0.05000042	          0.05000020	          0.05000007	          0.05000270	          0.06706813	          0.21409192	          0.05474115	          0.19075220	          0.05000000	          0.17109058	          0.05000001	          0.19052375	          0.19018016	          0.05095050	          0.05000007	          0.05000003	          0.20502223	
          2.30000000	         -8.01493101	          2.71819287	          1.02774335	         30.40989096	          0.97714763	        -47.98372499	          1.15714541	          7.83200495	          9.45737058	          0.11421915	          0.05000017	          0.05000116	          0.05000019	          0.05000007	          0.05000033	          0.05030261	          0.26674767	          0.07280889	          0.20296921	          0.05000000	          0.12831798	          0.05000002	          0.21372872	          0.16782650	          0.05000099	          0.05000007	          0.05000004	          0.20305813	
          2.32000000	         -7.75950179	          2.74109012	          1.02587442	         31.94674868	         -1.18860107	        -46.24466134	          2.11107515	          8.07439675	          9.53370074	         -0.32075066	          0.05108770	          0.23261775	          0.05228747	          0.05000005	          0.05000017	          0.05000079	          0.31619613	          0.09808049	          0.21484725	          0.05000000	          0.09623854	          0.05000003	          0.24023289	          0.14489231	          0.05000007	          0.05000008	          0.05000006	          0.19897375	
          2.34000000	         -7.52076881	          2.76444921	          1.02351294	         33.21492652	         -3.21475412	        -43.96637920	          2.77004352	          8.13160497	          9.67993768	         -0.69612089	          0.05475145	          0.41667494	          0.05000047	          0.05000006	          0.05000013	          0.05000015	          0.36108450	          0.12855812	          0.22240571	          0.05000001	          0.07217905	          0.05000003	          0.26656063	          0.12276023	          0.05000003	          0.05000013	          0.05000010	          0.19252795	
          2.36000000	         -7.30989219	          2.78825742	          1.02068740	         34.26712760	         -5.04036241	        -41.30445164	          3.04322008	          7.98965070	          9.93302184	         -1.00167249	          0.06341495	          0.56527622	          0.05000005	          0.06902990	          0.05000010	          0.05000006	          0.39818802	          0.16597420	          0.22142809	          0.05000000	          0.10160926	          0.05000002	          0.27778804	          0.09444145	          0.05000001	          0.05000037	          0.05000017	          0.18531428	
